<?xml version="1.0" encoding="iso-8859-1"?>
<!-- Generator: Adobe Illustrator 16.0.0, SVG Export Plug-In . SVG Version: 6.00 Build 0)  -->
<!DOCTYPE svg PUBLIC "-//W3C//DTD SVG 1.1//EN" "http://www.w3.org/Graphics/SVG/1.1/DTD/svg11.dtd">
<svg xmlns="http://www.w3.org/2000/svg" xmlns:xlink="http://www.w3.org/1999/xlink" version="1.1" id="Capa_1" x="0px" y="0px" width="512px" height="512px" viewBox="0 0 83.46 83.46" style="enable-background:new 0 0 83.46 83.46;" xml:space="preserve">
<g>
	<g>
		<path d="M83.46,41.729C83.46,18.685,64.782,0,41.732,0C18.686,0,0,18.685,0,41.729C0,64.775,18.677,83.453,41.719,83.46    c-0.084-8.474-0.111-20.677,0.021-20.957c-0.259-0.664-0.827-2.074-1.74-3.936c-0.635-1.294-1.427-2.779-2.367-4.319    c-0.271-0.438-0.813-1.615-0.746-1.889c0.034-0.175,0.024-0.342,0.034-0.51c-0.686-0.859-1.405-1.708-2.178-2.529    c-0.648-0.753-1.403-1.403-2.106-2.08c-0.711-0.671-1.514-1.219-2.229-1.808c-0.767-0.526-1.542-0.985-2.26-1.434    c-0.773-0.356-1.505-0.688-2.183-1.003c-0.707-0.205-1.359-0.396-1.934-0.561c-0.568-0.213-1.107-0.172-1.531-0.243    c-0.849-0.093-1.335-0.144-1.335-0.144s0.479,0.085,1.321,0.236c0.409,0.106,0.942,0.103,1.485,0.353    c0.555,0.209,1.177,0.441,1.856,0.688c0.631,0.353,1.318,0.731,2.043,1.129c0.667,0.493,1.388,0.989,2.092,1.55    c0.655,0.627,1.388,1.201,2.026,1.906c0.633,0.702,1.314,1.383,1.889,2.156c0.879,1.054,1.649,2.177,2.372,3.289    c-0.946,0.044-4.013-0.359-5.354-0.518c-1.497-0.198-3.105-0.544-4.658-1.088c-1.574-0.51-3.059-1.252-4.44-2.094    c-2.779-1.691-4.892-4.025-6.497-6.201c-0.803-1.109-1.545-2.119-2.264-2.868c-0.348-0.327-0.683-0.705-0.936-0.883    c-0.255-0.197-0.389-0.294-0.389-0.294s0.087-0.156,0.253-0.438c0.174-0.26,0.465-0.732,0.924-1.105    c0.894-0.83,2.468-1.682,4.336-2.104c1.867-0.424,3.997-0.428,6.037-0.012c2.065,0.38,4.023,1.213,5.778,2.296    c1.742,1.107,3.287,2.464,4.466,4.033c1.208,1.533,2.095,3.224,2.652,4.873c0.539,1.667,0.789,3.237,0.775,4.493    c0.007,0.137-0.019,0.268-0.022,0.394c2.531,3.183,4.409,6.431,5.5,8.497c0.191-0.64,0.392-1.324,0.599-2.087    c0.494-1.841,0.997-4.008,1.404-6.355c0.108-0.671,0.593-2.313,0.903-2.528c0.18-0.145,0.322-0.318,0.473-0.476    c0.068-1.448,0.086-2.923,0.034-4.415c0.014-1.308-0.178-2.616-0.289-3.898c-0.118-1.283-0.441-2.527-0.644-3.733    c-0.307-1.188-0.681-2.319-0.999-3.391c-0.459-1.027-0.896-1.994-1.297-2.892c-0.522-0.823-1.01-1.579-1.434-2.249    c-0.378-0.701-0.957-1.129-1.311-1.57c-0.767-0.83-1.204-1.304-1.204-1.304s0.403,0.508,1.107,1.388    c0.315,0.464,0.845,0.919,1.174,1.641c0.368,0.683,0.789,1.458,1.248,2.298c0.323,0.9,0.674,1.872,1.052,2.902    c0.228,1.073,0.516,2.19,0.729,3.364c0.107,1.188,0.335,2.397,0.357,3.655c0.021,1.248,0.107,2.517,0.007,3.79    c-0.043,1.813-0.257,3.597-0.505,5.339c-0.982-0.78-3.684-3.854-4.882-5.182c-1.317-1.499-2.611-3.242-3.688-5.128    c-1.124-1.875-1.95-3.912-2.592-5.948c-1.294-4.103-1.371-8.256-1.07-11.812c0.169-1.805,0.301-3.457,0.243-4.827    c-0.063-0.623-0.07-1.295-0.159-1.686c-0.084-0.413-0.135-0.637-0.135-0.637s0.221-0.073,0.63-0.214    c0.407-0.106,1.1-0.327,1.886-0.298c1.611-0.053,3.915,0.473,6.143,1.679c2.226,1.211,4.346,3.051,6.017,5.238    c1.721,2.169,2.949,4.71,3.747,7.318c0.776,2.613,1.126,5.305,0.94,7.892c-0.137,2.579-0.725,5.036-1.608,7.159    c-0.906,2.118-2.025,3.904-3.138,5.144c-0.109,0.141-0.246,0.246-0.366,0.37c-0.157,3.432-0.609,6.652-1.095,9.328    c1.115-1.975,2.689-4.489,4.66-6.971c-0.007-0.13-0.027-0.26-0.027-0.394c-0.007-1.259,0.236-2.833,0.78-4.497    c0.559-1.646,1.444-3.34,2.649-4.873c1.184-1.567,2.728-2.926,4.469-4.029c1.752-1.09,3.717-1.922,5.777-2.3    c2.039-0.412,4.164-0.405,6.036,0.01c1.868,0.424,3.442,1.273,4.339,2.106c0.459,0.375,0.746,0.845,0.925,1.107    c0.164,0.281,0.253,0.438,0.253,0.438s-0.137,0.099-0.396,0.291c-0.243,0.183-0.582,0.558-0.932,0.883    c-0.711,0.751-1.457,1.761-2.262,2.87c-1.598,2.173-3.713,4.504-6.499,6.201c-1.375,0.835-2.86,1.588-4.435,2.094    c-1.554,0.545-3.162,0.89-4.661,1.089c-1.342,0.157-4.408,0.568-5.353,0.52c0.726-1.115,1.492-2.241,2.368-3.292    c0.575-0.78,1.256-1.45,1.896-2.152c0.64-0.708,1.368-1.283,2.025-1.906c0.698-0.564,1.417-1.061,2.088-1.554    c0.726-0.396,1.409-0.78,2.039-1.129c0.685-0.246,1.308-0.482,1.862-0.685c0.544-0.247,1.078-0.247,1.484-0.354    c0.843-0.147,1.321-0.236,1.321-0.236s-0.485,0.049-1.335,0.14c-0.417,0.074-0.958,0.036-1.529,0.243    c-0.575,0.167-1.229,0.361-1.937,0.566c-0.675,0.312-1.407,0.646-2.181,0.999c-0.715,0.455-1.498,0.914-2.258,1.438    c-0.719,0.589-1.52,1.133-2.231,1.811c-0.698,0.667-1.462,1.32-2.108,2.073c-0.773,0.818-1.492,1.674-2.177,2.532    c0.011,0.168,0,0.336,0.034,0.507c0.068,0.277-0.479,1.458-0.746,1.89c-0.944,1.543-1.731,3.028-2.367,4.322    c-0.859,1.766-1.428,16.183-1.708,25.341C66.291,81.852,83.46,63.816,83.46,41.729z" fill="#FFFFFF"/>
	</g>
</g>
<g>
</g>
<g>
</g>
<g>
</g>
<g>
</g>
<g>
</g>
<g>
</g>
<g>
</g>
<g>
</g>
<g>
</g>
<g>
</g>
<g>
</g>
<g>
</g>
<g>
</g>
<g>
</g>
<g>
</g>
</svg>
