<?xml version="1.0" encoding="iso-8859-1"?>
<!-- Generator: Adobe Illustrator 19.0.0, SVG Export Plug-In . SVG Version: 6.00 Build 0)  -->
<svg xmlns="http://www.w3.org/2000/svg" xmlns:xlink="http://www.w3.org/1999/xlink" version="1.1" id="Capa_1" x="0px" y="0px" viewBox="0 0 512.001 512.001" style="enable-background:new 0 0 512.001 512.001;" xml:space="preserve" width="512px" height="512px">
<g>
	<g>
		<path d="M420.151,235.479c-2.767-3.169-7.577-3.493-10.744-0.727c-3.168,2.766-3.494,7.576-0.728,10.745    c32.199,36.876,49.932,84.179,49.932,133.196c0,50.532-18.128,82.125-57.05,99.426c-34.825,15.48-83.374,18.652-145.558,18.652    c-62.183,0-110.733-3.172-145.557-18.652c-38.923-17.301-57.05-48.894-57.05-99.426c0-111.719,90.889-202.608,202.608-202.608    c48.017,0,94.584,17.097,131.119,48.142c3.207,2.724,8.013,2.332,10.733-0.872c2.724-3.204,2.333-8.011-0.871-10.734    c-22.259-18.915-47.982-33.008-75.488-41.676c7.029-5.02,11.626-13.238,11.626-22.515c0-7.881-3.32-14.997-8.627-20.04    c5.308-5.042,8.627-12.159,8.627-20.041c0-10.682-6.092-19.962-14.98-24.567c10.553-15.439,29.787-47.506,29.787-76.167    c0-4.206-3.409-7.615-7.615-7.615H171.691c-4.206,0-7.615,3.409-7.615,7.615c0,8.676,1.767,18.334,5.252,28.704    c1.339,3.986,5.656,6.131,9.645,4.792c3.986-1.339,6.133-5.657,4.792-9.645c-1.938-5.767-3.251-11.201-3.925-16.237h108.771    c-5.789,16.515-17.575,49.167-25.784,65.464h-52.485c-3.034-4.151-8.811-12.435-14.577-22.77c-2.05-3.672-6.688-4.989-10.36-2.94    c-3.672,2.049-4.989,6.687-2.94,10.36c4.094,7.339,8.167,13.675,11.411,18.431c-8.895,4.602-14.993,13.887-14.993,24.573    c0,7.882,3.32,14.997,8.627,20.041c-5.308,5.042-8.627,12.159-8.627,20.04c0,9.231,4.551,17.415,11.522,22.441    c-33.015,10.379-63.267,28.616-88.438,53.788c-41.144,41.144-63.803,95.848-63.803,154.035c0,56.499,21.619,93.574,66.095,113.343    c18.297,8.133,40.9,13.566,69.098,16.608c27.417,2.958,57.163,3.357,82.645,3.357c64.124,0,114.468-3.395,151.744-19.964    c44.476-19.77,66.095-56.844,66.095-113.343C473.84,325.991,454.772,275.13,420.151,235.479z M304.742,15.229h27.43    c-3.524,26.613-23.793,56.243-30.518,65.464h-21.98C289.012,60.082,300.399,27.798,304.742,15.229z M206.535,95.923    c0.002,0,0.005,0,0.007,0c0.002,0,0.004,0,0.006,0h98.905c0.002,0,0.004,0,0.006,0c0.002,0,0.005,0,0.007,0    c6.85,0.001,12.423,5.574,12.423,12.425c0,6.851-5.573,12.426-12.425,12.426h-98.928c-6.85,0-12.425-5.574-12.425-12.426    C194.113,101.498,199.686,95.924,206.535,95.923z M206.537,136.004h98.928c6.851,0,12.425,5.574,12.425,12.425    c0,6.852-5.573,12.426-12.425,12.426h-98.928c-6.852,0-12.425-5.574-12.425-12.426    C194.113,141.577,199.687,136.004,206.537,136.004z" fill="#007E33"/>
	</g>
</g>
<g>
	<g>
		<path d="M266.175,330.561v-41.949c13.205,1.352,18.347,7.427,23.085,7.427c6.14,0,9.005-7.776,9.005-11.666    c0-9.679-18.301-14.019-32.09-14.678v-10.291c0-4.206-3.409-7.615-7.615-7.615c-4.206,0-7.615,3.409-7.615,7.615v10.842    c-18.868,2.452-37.207,12.824-37.207,37.869c0,25.404,19.245,33.101,37.207,39.516v48.528    c-19.495-2.25-24.907-15.797-31.475-15.797c-5.117,0-9.415,6.754-9.415,11.666c0,9.805,16.439,23.123,40.89,24.095v11.107    c0,4.207,3.409,7.616,7.615,7.616c4.207,0,7.615-3.409,7.615-7.615v-11.896c21.297-3.477,35.773-17.324,35.773-41.931    C301.948,346.334,283.561,337.074,266.175,330.561z M250.946,324.991c-9.467-3.808-16.741-8.322-16.741-18.923    c0-9.716,6.832-14.815,16.741-16.721V324.991z M266.176,395.287v-41.323c8.718,4.186,15.307,9.983,15.307,21.69    C281.483,386.333,275.639,392.712,266.176,395.287z" fill="#007E33"/>
	</g>
</g>
<g>
</g>
<g>
</g>
<g>
</g>
<g>
</g>
<g>
</g>
<g>
</g>
<g>
</g>
<g>
</g>
<g>
</g>
<g>
</g>
<g>
</g>
<g>
</g>
<g>
</g>
<g>
</g>
<g>
</g>
</svg>
