<?xml version="1.0" encoding="utf-8"?>
<!DOCTYPE svg PUBLIC "-//W3C//DTD SVG 1.1//EN" "http://www.w3.org/Graphics/SVG/1.1/DTD/svg11.dtd">
<svg xmlns="http://www.w3.org/2000/svg" xmlns:xlink="http://www.w3.org/1999/xlink" version="1.1" viewBox="0 0 512 512" enable-background="new 0 0 512 512" width="512px" height="512px">
  <g>
    <g>
      <path d="m400.9,84h-90.7v-48h-271.1c-15.6,0-28.1,12.5-28.1,28.2v302.3c0,15.6 12.5,28.1 28.1,28.1h32.6c-0.9,4.4-1.3,8.9-1.3,13.6 0,37.5 30.2,67.8 67.8,67.8 37.5,0 68.8-31.3 67.8-67.8 0-4.3-0.4-8.5-1.2-12.5h124.3c-0.8,4.1-1.2,8.2-1.2,12.5 0,37.5 30.2,67.8 67.8,67.8s67.8-31.3 67.8-67.8c0-4.3-0.4-8.5-1.2-12.5h10.5c15.6,0 28.1-13.6 28.1-29.2v-137.6l-100-144.9zm-10.4,19.8l81.3,117.8h-160.5v-117.8h79.2zm-252.3,351.3c-26.1,0-48-21.9-48-48 0-26.1 21.9-48 48-48 27.1,0 48,21.9 48,48-0.1,26.1-21.9,48-48,48zm59-80.2c-11.6-20.6-33.6-34.4-59-34.4-25,0-46.7,13.4-58.4,33.4h-40.7c-4.2,0-7.3-3.1-7.3-7.3v-302.4c0-4.2 3.1-7.3 7.3-7.3h251.3v318h-93.2zm198.5,80.2c-26.1,0-48-21.9-48-48 0-26.1 21.9-48 48-48s48,21.9 48,48c0,26.1-21.9,48-48,48zm77.2-80.2h-18.1c-11.6-20.6-33.6-34.4-59-34.4s-47.4,13.8-59,34.4h-25.4v-132.5h169.9v124.1c-0.1,4.2-4.3,8.4-8.4,8.4z" fill="#007E33"/>
      <path d="M64.2,201.8H257v-82.4H64.2V201.8z M85,140.3h152.2V182H85V140.3z" fill="#007E33"/>
    </g>
  </g>
</svg>
